#N canvas 372 0 1916 1401 12;
#X msg 334 60 close;
#X obj 194 116 pdchoco/slip_parse;
#X msg 173 60 baud 115200 \, open 3;
#X obj 199 155 oscparse;
#X msg 102 61 device;
#X obj 197 205 route pot but;
#X obj 468 243 nbx 5 17 -1e+37 1e+37 0 0 empty empty empty 0 -10 0 12 #fcfcfc #000000 #000000 0 256;
#X obj 473 288 * 63.5;
#X obj 469 323 / 4095;
#X obj 194 291 pdchoco/stream_flip_flop;
#X obj 476 381 pdchoco/stream_smooth 0.1 0.1;
#X obj 480 416 nbx 5 17 -1e+37 1e+37 0 0 empty empty empty 0 -10 0 12 #fcfcfc #000000 #000000 0 256;
#X obj 481 502 oscformat -f i vkb_midi 3 cc 13;
#X obj 529 878 netsend -u -b;
#X msg 697 671 connect 127.0.0.1 8001;
#X obj 698 634 oscformat -f f master volume;
#X obj 202 246 tgl 19 0 empty empty empty 0 -10 0 12 #fcfcfc #000000 #000000 0 1;
#X obj 202 344 change;
#X obj 204 383 tgl 19 0 empty empty empty 0 -10 0 12 #fcfcfc #000000 #000000 0 1;
#X obj 188 490 select 0 1;
#X obj 146 537 bng 19 250 50 0 empty empty empty 0 -10 0 12 #fcfcfc #000000 #000000;
#X msg 103 613 127;
#X obj 291 538 bng 19 250 50 0 empty empty empty 0 -10 0 12 #fcfcfc #000000 #000000;
#X msg 236 582 0;
#X msg 320 587 63.5;
#X obj 30 704 oscformat -f i vkb_midi 3 cc 72;
#X obj 275 705 oscformat -f i vkb_midi 1 cc 48;
#X connect 0 0 1 0;
#X connect 1 0 3 0;
#X connect 2 0 1 0;
#X connect 3 0 5 0;
#X connect 4 0 1 0;
#X connect 5 0 16 0;
#X connect 5 2 6 0;
#X connect 6 0 7 0;
#X connect 7 0 8 0;
#X connect 8 0 10 0;
#X connect 9 0 17 0;
#X connect 10 0 11 0;
#X connect 11 0 12 0;
#X connect 12 0 13 0;
#X connect 14 0 13 0;
#X connect 15 0 13 0;
#X connect 16 0 9 0;
#X connect 17 0 18 0;
#X connect 18 0 19 0;
#X connect 19 0 20 0;
#X connect 19 1 22 0;
#X connect 20 0 21 0;
#X connect 21 0 25 0;
#X connect 22 0 23 0;
#X connect 22 0 24 0;
#X connect 23 0 25 0;
#X connect 24 0 26 0;
#X connect 25 0 13 0;
#X connect 26 0 13 0;
